<?xml version="1.0" encoding="UTF-8" ?>
<!DOCTYPE svg PUBLIC "-//W3C//DTD SVG 1.1//EN" "http://www.w3.org/Graphics/SVG/1.1/DTD/svg11.dtd">
<svg width="43pt" height="43pt" viewBox="0 0 43 43" version="1.1" xmlns="http://www.w3.org/2000/svg">
<g id="#ff503fff">
<path fill="#ff503f" opacity="1.00" d=" M 19.46 0.00 L 23.48 0.00 C 33.55 0.88 42.09 9.41 43.00 19.47 L 43.00 23.51 C 42.10 33.56 33.59 42.09 23.54 43.00 L 19.53 43.00 C 9.46 42.13 0.92 33.60 0.00 23.55 L 0.00 19.53 C 0.87 9.46 9.40 0.91 19.46 0.00 M 17.52 4.70 C 10.50 6.29 4.91 12.66 4.32 19.84 C 3.60 26.34 7.02 33.02 12.66 36.31 C 17.98 39.59 25.10 39.57 30.41 36.27 C 36.30 32.81 39.71 25.63 38.56 18.87 C 37.33 9.24 26.94 2.17 17.52 4.70 Z" />
<path fill="#ff503f" opacity="1.00" d=" M 20.32 6.49 C 20.91 6.49 22.09 6.49 22.68 6.49 C 22.68 8.18 22.69 9.86 22.70 11.55 C 22.10 11.55 20.90 11.54 20.30 11.54 C 20.30 9.86 20.32 8.17 20.32 6.49 Z" />
<path fill="#ff503f" opacity="1.00" d=" M 14.50 8.21 C 15.23 7.89 15.96 7.57 16.68 7.24 C 17.29 9.31 20.09 12.17 16.53 13.05 C 15.82 11.45 15.16 9.83 14.50 8.21 Z" />
<path fill="#ff503f" opacity="1.00" d=" M 26.26 7.21 C 26.98 7.54 27.71 7.87 28.44 8.19 C 27.80 9.78 27.15 11.36 26.50 12.94 C 25.96 12.64 24.89 12.03 24.36 11.73 C 24.97 10.21 25.65 8.72 26.26 7.21 Z" />
<path fill="#ff503f" opacity="1.00" d=" M 11.45 10.23 C 12.63 11.35 13.77 12.50 14.94 13.62 C 14.50 14.29 14.07 14.96 13.65 15.63 C 12.30 14.54 11.07 13.33 9.91 12.05 C 10.29 11.60 11.06 10.69 11.45 10.23 Z" />
<path fill="#ff503f" opacity="1.00" d=" M 28.02 13.59 C 29.22 12.50 30.37 11.35 31.55 10.24 C 31.93 10.69 32.70 11.60 33.09 12.05 C 31.93 13.26 30.76 14.45 29.60 15.66 C 29.04 15.00 28.54 14.29 28.02 13.59 Z" />
<path fill="#ff503f" opacity="1.00" d=" M 6.97 17.45 C 7.15 13.75 10.54 16.33 12.39 17.07 C 12.16 17.65 11.69 18.80 11.46 19.38 C 9.96 18.74 8.47 18.08 6.97 17.45 Z" />
<path fill="#ff503f" opacity="1.00" d=" M 19.42 23.20 C 20.16 20.08 20.76 16.93 21.60 13.83 C 22.21 16.96 22.80 20.10 23.58 23.19 C 27.38 25.41 25.60 31.99 21.00 31.25 C 16.89 30.95 16.08 25.19 19.42 23.20 Z" />
<path fill="#ff503f" opacity="1.00" d=" M 30.52 16.90 C 32.02 16.23 33.52 15.57 35.02 14.88 C 35.32 15.69 35.60 16.51 35.86 17.33 C 34.00 17.96 30.72 20.45 30.52 16.90 Z" />
</g>
</svg>
