<?xml version="1.0" encoding="UTF-8" ?>
<!DOCTYPE svg PUBLIC "-//W3C//DTD SVG 1.1//EN" "http://www.w3.org/Graphics/SVG/1.1/DTD/svg11.dtd">
<svg width="45pt" height="27pt" viewBox="0 0 45 27" version="1.1" xmlns="http://www.w3.org/2000/svg">
<g id="#c6c6c6f0">
<path fill="#c6c6c6" opacity="0.94" d=" M 0.00 0.00 L 1.27 0.00 C 15.73 3.92 30.45 6.84 45.00 10.39 L 45.00 10.45 C 42.17 12.46 39.23 14.32 36.34 16.26 C 35.50 19.84 34.65 23.42 33.81 27.00 L 33.73 27.00 C 31.76 25.43 29.87 23.77 27.98 22.11 C 25.86 23.26 23.74 24.41 21.63 25.58 C 14.34 17.14 7.19 8.58 0.00 0.05 L 0.00 0.00 M 5.96 4.25 C 11.18 10.70 16.65 16.94 21.96 23.32 C 24.19 22.15 26.41 20.96 28.56 19.66 C 29.47 20.80 30.40 21.93 31.27 23.10 C 31.47 22.78 31.88 22.15 32.08 21.83 C 32.41 21.72 33.07 21.49 33.41 21.38 C 33.78 19.52 34.17 17.67 34.54 15.81 C 28.77 13.56 23.23 10.71 17.32 8.83 C 17.91 8.49 18.50 8.15 19.10 7.82 C 24.24 10.48 29.65 12.60 35.02 14.74 C 37.12 14.12 38.67 12.41 40.41 11.16 C 32.45 9.17 24.38 7.59 16.45 5.45 C 16.02 6.66 17.00 7.54 17.66 8.42 L 14.81 8.15 C 20.59 11.72 26.60 14.90 32.30 18.59 C 32.17 18.93 31.90 19.61 31.76 19.95 C 31.44 19.92 30.79 19.86 30.47 19.83 C 29.01 17.40 26.33 16.28 24.00 14.88 C 17.97 11.36 12.00 7.76 5.96 4.25 M 10.42 4.41 C 10.83 5.31 12.09 5.42 12.51 6.37 C 13.43 6.97 15.38 6.08 15.12 4.89 C 13.66 4.48 11.89 3.90 10.42 4.41 Z" />
</g>
</svg>
