<?xml version="1.0" encoding="UTF-8" ?>
<!DOCTYPE svg PUBLIC "-//W3C//DTD SVG 1.1//EN" "http://www.w3.org/Graphics/SVG/1.1/DTD/svg11.dtd">
<svg width="11pt" height="11pt" viewBox="0 0 11 11" version="1.1" xmlns="http://www.w3.org/2000/svg">
<g id="#ffffffff">
<path fill="#ffffff" opacity="1.00" d=" M 4.47 0.00 L 6.42 0.00 C 6.75 1.27 6.99 2.57 7.22 3.86 C 8.48 4.05 9.74 4.25 11.00 4.46 L 11.00 6.42 C 9.75 6.74 8.48 6.98 7.21 7.21 C 6.98 8.48 6.74 9.75 6.42 11.00 L 4.49 11.00 C 4.26 9.74 4.05 8.49 3.85 7.22 C 2.56 6.99 1.27 6.75 0.00 6.42 L 0.00 4.49 C 1.28 4.26 2.56 4.04 3.85 3.83 C 4.04 2.55 4.25 1.27 4.47 0.00 Z" />
</g>
</svg>
