<?xml version="1.0" encoding="UTF-8" ?>
<!DOCTYPE svg PUBLIC "-//W3C//DTD SVG 1.1//EN" "http://www.w3.org/Graphics/SVG/1.1/DTD/svg11.dtd">
<svg width="17px" height="15px" viewBox="0 0 17 15" version="1.1" xmlns="http://www.w3.org/2000/svg">
<g id="#f1f1f1f1">
<path fill="#ffffff" opacity="0.95" d=" M 8.15 0.00 L 10.86 0.00 C 13.92 0.65 16.31 3.06 17.00 6.10 L 17.00 8.87 C 16.34 11.92 13.94 14.35 10.88 15.00 L 8.08 15.00 C 6.49 14.54 5.01 13.79 3.79 12.66 C 4.17 12.18 4.95 11.22 5.34 10.74 C 7.75 13.20 12.33 13.14 13.94 9.82 C 16.17 6.16 12.02 1.17 8.03 2.73 C 6.07 3.15 4.99 4.97 4.33 6.70 C 4.84 6.85 5.87 7.14 6.38 7.29 C 5.26 8.28 4.26 9.38 3.15 10.38 C 2.04 9.37 1.06 8.23 0.00 7.17 L 0.00 7.08 C 0.47 7.05 1.40 7.01 1.86 6.99 C 2.12 3.55 4.80 0.67 8.15 0.00 Z" />
</g>
</svg>
